# Blender 3.4.1
# www.blender.org
mtllib asteroid_medium.mtl
o Sphere
v -0.017207 1.003573 0.096964 0.4000 0.3686 0.3882
v 0.715086 -0.612095 0.046694 0.2980 0.2588 0.2980
v 0.741381 -0.492218 -0.087322 0.2941 0.2432 0.2941
v 0.947808 -0.162181 0.134391 0.3568 0.3176 0.3490
v 0.769370 0.302962 0.394385 0.3529 0.3019 0.3451
v 0.563499 0.420568 0.479038 0.3804 0.3490 0.3686
v 0.491388 -0.094989 0.686372 0.2706 0.2196 0.2745
v 0.208996 -0.889426 0.214106 0.3098 0.2549 0.3059
v 0.442400 -0.814989 0.227199 0.2745 0.2196 0.2784
v 0.697383 0.136774 0.552213 0.3216 0.2667 0.3176
v 0.336483 0.528055 0.813795 0.3176 0.2823 0.3137
v 0.284106 -0.004129 0.932102 0.2627 0.2078 0.2706
v 0.418722 -0.609146 0.657503 0.2863 0.2353 0.2902
v 0.130327 -0.840096 0.609265 0.3372 0.2823 0.3294
v 0.191704 1.013770 0.429035 0.3568 0.3255 0.3490
v 0.105868 -0.049072 0.957966 0.3098 0.2745 0.3098
v -0.390352 0.252669 0.850284 0.3176 0.2863 0.3216
v -0.182758 0.719664 0.642594 0.2667 0.2118 0.2745
v 0.017806 -0.923064 0.287973 0.4196 0.3961 0.4078
v -0.023008 0.398516 0.901228 0.2784 0.2353 0.2863
v -0.509022 0.637692 0.437415 0.2941 0.2353 0.2902
v -0.140173 -0.873768 0.202080 0.4471 0.4392 0.4314
v -0.452562 -0.146445 0.950533 0.4118 0.3882 0.4000
v -0.587231 0.241674 0.688117 0.3059 0.2706 0.3098
v -0.545844 0.463680 0.491716 0.2784 0.2196 0.2823
v -0.888027 -0.303694 0.156432 0.3490 0.3216 0.3451
v -1.022385 -0.149722 0.394677 0.3804 0.3608 0.3725
v -1.046541 0.219639 0.322645 0.3568 0.3255 0.3529
v -0.702626 0.530539 -0.106625 0.3372 0.2823 0.3294
v -0.871339 -0.267640 -0.212784 0.3333 0.2941 0.3294
v -0.877110 -0.005994 -0.436135 0.3372 0.2784 0.3294
v -0.405354 -0.502505 -0.297573 0.4078 0.3804 0.3921
v -0.135393 -0.888751 -0.214595 0.3568 0.3098 0.3490
v -0.576434 0.589801 -0.321945 0.3529 0.3098 0.3451
v -0.306473 -0.657165 -0.315716 0.3882 0.3529 0.3765
v -0.188592 -0.906460 -0.048679 0.3608 0.3176 0.3529
v -0.773909 0.007120 -0.682263 0.3372 0.2823 0.3294
v -0.245963 0.850336 -0.614610 0.3255 0.2667 0.3176
v -0.635064 0.131429 -0.868881 0.3176 0.2745 0.3176
v -0.653424 -0.177916 -0.951637 0.2706 0.2157 0.2784
v 0.009026 -0.875388 -0.440577 0.3372 0.2745 0.3294
v -0.432221 0.644265 -0.796687 0.3451 0.3137 0.3412
v 0.086219 -0.454575 -0.816788 0.3412 0.2902 0.3372
v -0.191872 0.889020 -0.333249 0.3686 0.3255 0.3568
v -0.171740 -0.708258 -0.521736 0.3451 0.2941 0.3412
v -0.319617 0.578100 -0.979313 0.3059 0.2667 0.3098
v -0.097646 0.167202 -1.150596 0.3451 0.3098 0.3372
v 0.462852 0.617316 -0.493457 0.3294 0.2706 0.3176
v -0.053755 0.846622 -0.727293 0.3216 0.2588 0.3137
v 0.065881 0.714527 -0.862406 0.3333 0.2706 0.3255
v 0.076615 -0.606180 -0.663645 0.3255 0.2627 0.3176
v 0.231792 0.482693 -0.906898 0.3412 0.2902 0.3333
v 0.297363 -0.347942 -0.634740 0.3372 0.2784 0.3294
v 0.606673 0.136899 -0.785444 0.3216 0.2627 0.3176
v 0.455959 -0.273417 -0.630563 0.3216 0.2588 0.3137
v 0.551930 -0.446430 -0.529574 0.3098 0.2510 0.3059
v 0.830301 -0.160942 -0.257718 0.3255 0.2667 0.3176
v 0.407984 -0.864866 -0.206887 0.4432 0.4314 0.4275
v 0.796006 -0.378550 -0.263139 0.3216 0.2627 0.3176
v 0.494053 -0.929368 0.006439 0.3765 0.3490 0.3725
v 0.002943 -1.003693 0.075857 0.3529 0.3059 0.3451
v -0.032605 0.911945 -0.015672 0.3961 0.3647 0.3843
v 0.067611 0.828882 -0.221119 0.3961 0.3608 0.3843
v 0.688233 0.296194 0.036958 0.3294 0.2902 0.3216
v 0.937584 -0.356870 0.227649 0.3568 0.3255 0.3490
v 0.802988 0.155694 0.187978 0.3412 0.2784 0.3333
v 0.664509 0.443483 0.212383 0.3882 0.3568 0.3804
v 0.640357 0.756827 0.175816 0.3921 0.3765 0.3843
v 0.220294 -0.928237 0.031020 0.3176 0.2627 0.3137
v 0.428771 0.840378 0.379546 0.3843 0.3686 0.3765
v 0.897960 -0.302239 0.436033 0.3608 0.3333 0.3568
v 0.571438 0.662215 0.421951 0.3961 0.3765 0.3843
v 0.607044 -0.248549 0.581817 0.3255 0.2902 0.3255
v 0.552547 -0.453261 0.531264 0.3372 0.3059 0.3333
v 0.347942 -0.850708 0.493590 0.3098 0.2510 0.3059
v 0.466013 0.255077 0.569290 0.3176 0.2706 0.3137
v 0.320667 0.326486 0.835102 0.2784 0.2275 0.2823
v 0.415433 -0.259011 0.660027 0.2784 0.2314 0.2823
v 0.232327 0.751070 0.752662 0.3333 0.3019 0.3294
v -0.019294 -0.357958 1.060651 0.3216 0.2784 0.3176
v -0.178354 -0.791536 0.714459 0.3372 0.2745 0.3294
v -0.215979 0.045284 0.946492 0.3647 0.3412 0.3568
v 0.022977 1.002316 0.328432 0.3608 0.3216 0.3529
v 0.014336 -0.670937 0.842886 0.3255 0.2627 0.3176
v -0.389971 0.417701 0.713086 0.2667 0.2157 0.2745
v -0.343495 -0.812533 0.440279 0.3686 0.3255 0.3568
v -0.356792 -0.636289 0.833515 0.3529 0.3019 0.3451
v -0.527395 -0.762695 0.269653 0.3647 0.3255 0.3529
v -0.373248 -0.374195 0.926483 0.3961 0.3647 0.3843
v -0.305452 0.823391 0.061339 0.3686 0.3255 0.3568
v -0.198044 0.856414 0.330296 0.3294 0.2902 0.3255
v -0.567288 0.784190 0.223568 0.3294 0.2706 0.3216
v -0.621487 -0.519234 0.538433 0.3804 0.3451 0.3686
v -0.972177 0.189046 0.576687 0.3451 0.3216 0.3412
v -0.738161 -0.320566 0.613005 0.4000 0.3725 0.3882
v -0.693559 0.562931 0.335634 0.3294 0.2667 0.3216
v -0.747640 -0.555450 0.217920 0.3412 0.3137 0.3372
v -0.319336 -0.861809 0.140779 0.3961 0.3686 0.3843
v -0.699256 0.437656 0.082346 0.3333 0.2706 0.3255
v -0.551927 0.702445 -0.043005 0.3372 0.2745 0.3294
v -0.620283 -0.623297 -0.077629 0.4314 0.4196 0.4157
v -0.870746 0.319421 -0.004048 0.3451 0.2902 0.3372
v -0.867620 0.083427 -0.113636 0.3529 0.3059 0.3451
v -0.348942 -0.735825 -0.196456 0.4157 0.3961 0.4039
v -0.420110 0.816311 -0.111434 0.3490 0.3019 0.3412
v -0.727618 -0.393449 -0.332950 0.3725 0.3333 0.3647
v -0.696554 -0.450492 -0.587972 0.3451 0.2941 0.3372
v -0.466475 0.729135 -0.391805 0.3529 0.3059 0.3451
v -0.539164 -0.351614 -0.946951 0.2823 0.2275 0.2823
v -0.475516 0.276032 -1.048077 0.2941 0.2549 0.2980
v -0.084936 0.869224 -0.093562 0.4510 0.4235 0.4432
v -0.392563 -0.539107 -0.667174 0.3490 0.2902 0.3372
v -0.787180 0.370238 -0.482271 0.3686 0.3333 0.3568
v -0.386933 -0.024918 -1.024295 0.2941 0.2471 0.2980
v -0.091508 -0.308895 -0.949813 0.3255 0.2863 0.3255
v 0.236634 -0.136894 -0.739903 0.3529 0.3137 0.3490
v 0.249824 0.232871 -0.919780 0.3568 0.3255 0.3490
v 0.134838 0.752766 -0.333185 0.3529 0.3019 0.3451
v 0.491551 -0.622675 -0.434915 0.2902 0.2314 0.2902
v 0.419810 -0.834087 -0.390523 0.3568 0.3098 0.3451
v 0.614036 0.329077 -0.709958 0.3451 0.2980 0.3372
v 0.181406 0.959433 -0.059452 0.4000 0.3725 0.3843
v 0.908637 0.297476 -0.377345 0.3529 0.3176 0.3451
v 0.910693 0.099632 -0.338954 0.3804 0.3490 0.3686
v 0.092052 -0.999738 0.081412 0.3216 0.2667 0.3176
v 0.443535 0.901944 -0.040595 0.4000 0.3686 0.3882
v 0.577742 0.685608 -0.137541 0.3765 0.3451 0.3686
v 0.894735 -0.088920 -0.083603 0.3255 0.2706 0.3176
vn 0.8653 -0.3023 -0.3999
vn 0.9068 -0.4171 0.0614
vn 0.8270 -0.4923 -0.2715
vn 0.4283 0.8760 -0.2218
vn 0.8568 0.5078 0.0895
vn 0.8156 0.5343 -0.2222
vn 0.8970 0.4351 0.0780
vn 0.9493 0.2948 0.1090
vn 0.9940 -0.0038 -0.1093
vn 0.8783 0.4690 -0.0927
vn 0.9926 0.1071 -0.0579
vn 0.1014 0.9072 -0.4082
vn 0.5631 0.7457 0.3561
vn 0.7879 -0.6152 0.0256
vn 0.5588 -0.7634 0.3239
vn 0.4575 -0.8865 0.0693
vn 0.2761 -0.9611 0.0047
vn 0.2954 -0.9338 0.2021
vn 0.8065 0.5042 0.3088
vn 0.7611 0.2519 0.5977
vn 0.5406 0.2384 0.8068
vn 0.7706 -0.2831 0.5709
vn 0.8321 0.3349 0.4422
vn 0.5532 0.2150 0.8048
vn 0.6409 -0.4198 0.6426
vn 0.4748 -0.8102 0.3438
vn 0.6497 0.1738 0.7400
vn 0.2003 0.9271 0.3169
vn -0.2761 0.9370 -0.2140
vn 0.6201 -0.1069 0.7772
vn 0.4339 -0.2135 0.8753
vn 0.5821 -0.2309 0.7796
vn 0.6769 -0.3682 0.6373
vn 0.1251 -0.2190 0.9677
vn 0.2133 0.6194 0.7555
vn 0.5771 0.1101 0.8092
vn 0.1537 -0.8714 0.4658
vn -0.0541 -0.9610 0.2711
vn 0.2434 -0.9684 0.0551
vn 0.4963 0.0293 0.8677
vn -0.3306 0.9182 0.2184
vn 0.1551 -0.6181 0.7707
vn -0.1752 -0.8686 0.4635
vn 0.0584 0.2882 0.9558
vn -0.2806 -0.9176 0.2815
vn -0.1461 -0.9891 0.0206
vn -0.0938 0.2357 0.9673
vn -0.4564 0.0063 0.8898
vn -0.3830 0.6319 0.6738
vn -0.4476 -0.5474 0.7071
vn -0.4952 0.5412 0.6796
vn -0.0820 0.3215 0.9433
vn -0.4259 0.4052 0.8090
vn -0.4537 0.8513 0.2634
vn -0.3547 -0.9037 0.2399
vn -0.4416 0.5257 0.7270
vn -0.5304 0.5830 0.6155
vn -0.5343 0.5163 0.6693
vn -0.5809 -0.8077 0.1012
vn -0.7193 0.2997 0.6267
vn -0.7029 -0.4746 0.5298
vn -0.3284 0.9437 -0.0392
vn -0.4640 -0.3475 0.8148
vn -0.7194 -0.5604 0.4104
vn -0.5765 0.8057 0.1357
vn -0.7074 0.6472 0.2843
vn -0.3958 -0.9183 -0.0040
vn -0.9420 0.3327 -0.0438
vn -0.9112 -0.3835 0.1501
vn -0.9119 -0.4084 -0.0404
vn -0.8001 -0.5877 0.1199
vn -0.5837 -0.7290 -0.3577
vn -0.5627 -0.6687 -0.4860
vn -0.3056 0.8253 -0.4749
vn -0.9847 0.0422 -0.1691
vn -0.9198 -0.3309 -0.2106
vn -0.6224 0.7613 -0.1819
vn -0.7761 0.6295 -0.0372
vn -0.4723 -0.8606 -0.1904
vn -0.8558 0.4442 -0.2651
vn -0.8513 0.5072 -0.1344
vn -0.7167 0.6801 -0.1544
vn -0.4958 0.8665 0.0571
vn -0.7199 0.6783 -0.1473
vn -0.6993 -0.6701 -0.2488
vn -0.5646 -0.7603 -0.3214
vn -0.4325 -0.8516 -0.2963
vn -0.9673 -0.0683 -0.2443
vn -0.1228 0.9803 -0.1550
vn -0.0288 0.9993 -0.0238
vn -0.9015 0.0050 -0.4327
vn -0.7143 -0.6800 -0.1655
vn -0.2863 -0.8886 -0.3583
vn -0.7144 -0.6119 -0.3395
vn -0.3954 -0.7601 -0.5157
vn -0.7745 0.1605 -0.6119
vn -0.7355 -0.2250 -0.6391
vn -0.3889 -0.5515 -0.7380
vn -0.5599 0.1709 -0.8107
vn -0.2649 -0.1758 -0.9481
vn -0.3019 0.6057 -0.7362
vn -0.6061 0.6372 -0.4760
vn 0.2836 0.6779 -0.6783
vn 0.1353 0.8979 -0.4188
vn 0.2491 -0.4124 -0.8762
vn -0.3448 0.8964 -0.2784
vn 0.1731 -0.0477 -0.9837
vn 0.4156 -0.5033 -0.7576
vn 0.1908 -0.6132 -0.7665
vn 0.1046 0.9030 -0.4168
vn 0.4745 0.3378 -0.8128
vn 0.4809 -0.1184 -0.8687
vn -0.1278 -0.8513 -0.5088
vn 0.4305 -0.3311 -0.8397
vn 0.2728 0.9229 -0.2717
vn 0.4347 -0.3565 -0.8270
vn 0.6508 0.4135 -0.6368
vn 0.4696 -0.7160 -0.5165
vn 0.5841 -0.1100 -0.8042
vn 0.4188 -0.3709 -0.8289
vn 0.5551 0.7449 -0.3702
vn 0.5315 -0.3627 -0.7654
vn 0.6083 -0.4399 -0.6606
vn -0.0743 -0.9790 -0.1900
vn 0.9343 0.3090 -0.1779
vn 0.9740 -0.0753 -0.2139
vn 0.9051 -0.3331 -0.2643
vn -0.7902 0.6124 0.0230
vt 0.637449 0.967748
vt 0.530066 0.962513
vt 0.446177 0.956833
vt 0.304349 0.954103
vt 0.828232 0.996094
vt 0.739379 0.273220
vt 0.768214 0.314273
vt 0.724913 0.448000
vt 0.674755 0.598581
vt 0.637449 0.654010
vt 0.597541 0.480788
vt 0.621729 0.112065
vt 0.674748 0.170708
vt 0.643961 0.545434
vt 0.561791 0.672605
vt 0.541126 0.494999
vt 0.589858 0.289304
vt 0.525978 0.199931
vt 0.568274 0.851176
vt 0.512305 0.487214
vt 0.430307 0.581418
vt 0.454642 0.757592
vt 0.488884 0.059319
vt 0.533386 0.075537
vt 0.506277 0.095324
vt 0.494284 0.631189
vt 0.372647 0.743761
vt 0.470943 0.053235
vt 0.403619 0.087093
vt 0.430156 0.465655
vt 0.390046 0.585289
vt 0.368100 0.679525
vt 0.276770 0.406590
vt 0.310737 0.449195
vt 0.297057 0.554510
vt 0.229668 0.705068
vt 0.214089 0.393337
vt 0.176946 0.496698
vt 0.148528 0.251599
vt 0.108945 0.003906
vt 0.992897 0.064138
vt 0.957358 0.025165
vt 0.105490 0.091899
vt 0.178016 0.727624
vt 0.120170 0.189601
vt 0.116164 0.038377
vt 0.205379 0.067630
vt 0.139209 0.490995
vt 0.057252 0.792275
vt 0.095541 0.540295
vt 0.094959 0.456928
vt 0.013661 0.156613
vt 0.004640 0.207370
vt 0.982953 0.141862
vt 0.080693 0.696735
vt 0.003656 0.336803
vt 0.980899 0.356233
vt 0.071613 0.883311
vt 0.998826 0.854449
vt 0.055840 0.221092
vt 0.049327 0.663980
vt 0.014722 0.553514
vt 0.997123 0.559725
vt 0.884953 0.749005
vt 0.014320 0.774132
vt 0.994783 0.768608
vt 0.005085 0.718660
vt 0.000663 0.659287
vt 0.983659 0.702220
vt 0.002534 0.274925
vt 0.000824 0.232367
vt 0.976730 0.266796
vt 0.960403 0.647355
vt 0.935865 0.356120
vt 0.893735 0.540317
vt 0.899778 0.396127
vt 0.870851 0.331618
vt 0.798806 0.417803
vt 0.822227 0.151109
vt 0.798061 0.362558
vt 0.747542 0.156221
vt 0.487801 0.032795
vt 0.111328 0.007812
vt 0.953125 0.000000
vt 0.546337 0.030000
vt 0.338845 0.049361
vt 0.049529 0.974777
vt 0.860186 0.989060
vt 0.829855 0.985194
vt 0.237830 0.960836
vt 0.041428 0.976469
vt 0.974213 0.938294
vt 0.870319 0.956225
vt 0.011672 0.909924
vt 0.916525 0.947340
vt 0.742347 0.627184
vt 0.711972 0.389755
vt 0.712726 0.562795
vt 0.700617 0.671858
vt 0.706504 0.773128
vt 0.740192 0.054779
vt 0.734567 0.081998
vt 0.830275 0.062133
vt 0.639321 0.820782
vt 0.669139 0.409568
vt 0.652104 0.745017
vt 0.625998 0.421881
vt 0.631414 0.329369
vt 0.597265 0.198463
vt 0.603869 0.600571
vt 0.557679 0.599475
vt 0.588406 0.395947
vt 0.545753 0.737244
vt 0.494856 0.395195
vt 0.459464 0.240600
vt 0.466819 0.527051
vt 0.505064 0.894088
vt 0.507354 0.288897
vt 0.431136 0.658414
vt 0.393517 0.189959
vt 0.436191 0.297000
vt 0.327934 0.213847
vt 0.439961 0.383632
vt 0.291558 0.879311
vt 0.400017 0.864843
vt 0.322719 0.782442
vt 0.364474 0.328728
vt 0.335863 0.549086
vt 0.357155 0.413604
vt 0.324121 0.699185
vt 0.291259 0.305040
vt 0.317467 0.123251
vt 0.268132 0.677168
vt 0.237984 0.790840
vt 0.223094 0.239716
vt 0.249916 0.609346
vt 0.233906 0.530369
vt 0.174715 0.161032
vt 0.198509 0.849271
vt 0.172014 0.354387
vt 0.134206 0.359966
vt 0.132287 0.781109
vt 0.081399 0.396317
vt 0.067515 0.574704
vt 0.162249 0.941074
vt 0.075056 0.954430
vt 0.082784 0.300216
vt 0.164362 0.614924
vt 0.056684 0.494094
vt 0.018658 0.408948
vt 0.998382 0.466370
vt 0.947962 0.442456
vt 0.957288 0.553072
vt 0.935001 0.848449
vt 0.866850 0.272595
vt 0.872591 0.197867
vt 0.881854 0.618674
vt 0.784151 0.933632
vt 0.834262 0.944743
vt 0.817914 0.604490
vt 0.810133 0.555606
vt 0.945673 0.031503
vt 0.618224 0.053776
vt 0.583385 0.043424
vt 0.894016 0.044006
vt 0.760416 0.848939
vt 0.787939 0.749027
vt 0.760980 0.467043
s 1
usemtl VertexPaint
f 57/78/1 65/97/2 3/7/3
f 126/166/4 68/100/5 127/167/6
f 127/167/6 68/100/5 64/96/7
f 64/96/7 68/100/5 67/99/8
f 128/168/9 66/98/10 4/8/11
f 122/158/12 70/104/13 126/166/4
f 3/7/3 65/97/2 2/6/14
f 126/166/4 70/104/13 68/100/5
f 2/6/14 9/13/15 60/81/16
f 69/102/17 9/13/15 8/12/18
f 4/8/11 66/98/10 5/9/19
f 67/99/8 6/10/20 5/9/19
f 5/9/19 10/14/21 71/105/22
f 68/100/5 70/104/13 72/106/23
f 68/100/5 6/10/20 67/99/8
f 72/106/23 11/15/24 6/10/20
f 9/13/15 74/108/25 75/109/26
f 75/109/26 8/12/18 9/13/15
f 6/10/20 76/110/27 10/14/21
f 15/19/28 122/158/12 1/1/29
f 10/14/21 7/11/30 73/107/31
f 73/107/31 78/112/32 74/108/25
f 74/108/25 13/17/33 75/109/26
f 74/108/25 78/112/32 80/114/34
f 15/19/28 79/113/35 72/106/23
f 11/15/24 77/111/36 76/110/27
f 75/109/26 14/18/37 8/12/18
f 8/12/18 19/24/38 125/164/39
f 76/110/27 77/111/36 7/11/30
f 7/11/30 77/111/36 12/16/40
f 7/11/30 12/16/40 78/112/32
f 15/19/28 1/2/29 83/117/41
f 78/112/32 12/16/40 80/114/34
f 13/17/33 14/18/37 75/109/26
f 14/18/37 19/24/38 8/12/18
f 84/118/42 81/115/43 14/18/37
f 12/16/40 16/20/44 80/114/34
f 22/28/45 61/82/46 19/23/38
f 16/20/44 82/116/47 80/114/34
f 82/116/47 23/30/48 80/114/34
f 15/19/28 83/117/41 18/22/49
f 87/121/50 81/115/43 84/118/42
f 79/113/35 18/22/49 85/119/51
f 79/113/35 85/119/51 20/26/52
f 20/26/52 82/116/47 77/111/36
f 85/119/51 17/21/53 20/26/52
f 20/26/52 17/21/53 82/116/47
f 82/116/47 17/21/53 23/30/48
f 83/117/41 1/3/29 91/125/54
f 81/115/43 87/121/50 86/120/55
f 85/119/51 24/31/56 17/21/53
f 19/25/38 86/120/55 22/29/45
f 85/119/51 21/27/57 25/32/58
f 86/120/55 87/121/50 88/122/59
f 23/30/48 94/128/60 95/129/61
f 91/125/54 1/3/29 90/124/62
f 89/123/63 95/129/61 93/127/64
f 87/121/50 89/123/63 93/127/64
f 91/125/54 92/126/65 21/27/57
f 93/127/64 88/122/59 87/121/50
f 21/27/57 96/130/66 25/32/58
f 25/32/58 96/130/66 94/128/60
f 86/120/55 98/132/67 22/29/45
f 94/128/60 28/35/68 27/34/69
f 94/128/60 27/34/69 95/129/61
f 26/33/70 97/131/71 93/127/64
f 88/122/59 97/131/71 101/135/72
f 96/130/66 28/35/68 94/128/60
f 98/132/67 88/122/59 101/135/72
f 98/132/67 101/135/72 104/138/73
f 1/4/29 62/90/74 90/124/62
f 27/34/69 28/35/68 26/33/70
f 26/33/70 28/35/68 103/137/75
f 97/131/71 30/37/76 101/135/72
f 92/126/65 100/134/77 29/36/78
f 104/138/73 36/47/79 98/132/67
f 26/33/70 103/137/75 30/37/76
f 113/148/80 103/137/75 102/136/81
f 102/136/81 29/36/78 113/148/80
f 29/36/78 34/44/82 113/148/80
f 105/139/83 108/142/84 34/44/82
f 101/135/72 106/140/85 32/39/86
f 32/39/86 104/138/73 101/135/72
f 36/47/79 104/138/73 33/43/87
f 30/37/76 31/38/88 106/140/85
f 105/139/83 111/145/89 44/58/90
f 31/38/88 113/148/80 37/48/91
f 107/141/92 112/147/93 32/39/86
f 32/39/86 35/45/94 104/138/73
f 112/147/93 45/60/95 35/45/94
f 35/45/94 33/43/87 104/138/73
f 113/148/80 39/50/96 40/51/97
f 61/83/46 36/46/79 33/40/87
f 37/48/91 109/143/98 107/141/92
f 110/144/99 114/149/100 39/50/96
f 39/50/96 114/149/100 40/51/97
f 114/149/100 109/143/98 40/51/97
f 107/141/92 109/143/98 112/147/93
f 113/148/80 46/61/101 110/144/99
f 42/55/102 50/67/103 46/61/101
f 111/146/89 62/87/74 63/91/104
f 109/143/98 114/149/100 115/150/105
f 108/142/84 38/49/106 42/55/102
f 114/149/100 47/62/107 115/150/105
f 109/143/98 115/150/105 43/56/108
f 45/60/95 112/147/93 51/70/109
f 42/55/102 49/65/110 50/67/103
f 42/55/102 38/49/106 49/65/110
f 46/61/101 50/68/103 47/62/107
f 47/63/107 50/69/103 52/73/111
f 47/63/107 52/73/111 117/153/112
f 41/54/113 125/162/39 33/41/87
f 47/63/107 117/153/112 116/152/114
f 115/151/105 116/152/114 43/57/108
f 63/92/104 118/154/115 44/59/90
f 116/152/114 53/74/116 43/57/108
f 50/69/103 121/157/117 52/73/111
f 52/73/111 121/157/117 117/153/112
f 33/42/87 125/162/39 61/84/46
f 41/54/113 51/72/109 120/156/118
f 117/153/112 54/75/119 55/76/120
f 118/154/115 48/64/121 49/66/110
f 48/64/121 121/157/117 50/69/103
f 53/74/116 55/76/120 56/77/122
f 53/74/116 56/77/122 119/155/123
f 51/72/109 119/155/123 120/156/118
f 120/156/118 58/79/124 41/54/113
f 123/160/125 124/161/126 121/157/117
f 63/93/104 62/88/74 122/159/12
f 63/95/104 126/166/4 118/154/115
f 118/154/115 126/166/4 48/64/121
f 58/79/124 60/81/16 69/101/17
f 122/159/12 62/89/74 1/5/29
f 124/161/126 123/160/125 64/96/7
f 126/166/4 127/167/6 48/64/121
f 120/156/118 3/7/3 2/6/14
f 127/167/6 64/96/7 123/160/125
f 59/80/127 57/78/1 3/7/3
f 120/156/118 2/6/14 60/81/16
f 64/96/7 66/98/10 124/161/126
f 124/161/126 66/98/10 128/168/9
f 128/168/9 4/8/11 65/97/2
f 64/96/7 67/99/8 5/9/19
f 69/102/17 60/81/16 9/13/15
f 66/98/10 64/96/7 5/9/19
f 65/97/2 4/8/11 71/105/22
f 4/8/11 5/9/19 71/105/22
f 2/6/14 65/97/2 71/105/22
f 2/6/14 71/105/22 74/108/25
f 9/13/15 2/6/14 74/108/25
f 68/100/5 72/106/23 6/10/20
f 71/105/22 73/107/31 74/108/25
f 5/9/19 6/10/20 10/14/21
f 69/102/17 8/12/18 125/163/39
f 71/105/22 10/14/21 73/107/31
f 70/104/13 122/158/12 15/19/28
f 10/14/21 76/110/27 7/11/30
f 70/104/13 15/19/28 72/106/23
f 72/106/23 79/113/35 11/15/24
f 6/10/20 11/15/24 76/110/27
f 13/17/33 74/108/25 80/114/34
f 78/112/32 73/107/31 7/11/30
f 61/85/46 125/164/39 19/24/38
f 14/18/37 13/17/33 84/118/42
f 77/111/36 11/15/24 20/26/52
f 13/17/33 80/114/34 84/118/42
f 79/113/35 15/19/28 18/22/49
f 20/26/52 11/15/24 79/113/35
f 12/16/40 77/111/36 16/20/44
f 16/20/44 77/111/36 82/116/47
f 84/118/42 80/114/34 89/123/63
f 87/121/50 84/118/42 89/123/63
f 14/18/37 81/115/43 86/120/55
f 19/25/38 14/18/37 86/120/55
f 80/114/34 23/30/48 89/123/63
f 18/22/49 83/117/41 91/125/54
f 21/27/57 18/22/49 91/125/54
f 85/119/51 18/22/49 21/27/57
f 17/21/53 24/31/56 23/30/48
f 85/119/51 25/32/58 24/31/56
f 23/30/48 24/31/56 94/128/60
f 89/123/63 23/30/48 95/129/61
f 21/27/57 92/126/65 96/130/66
f 24/31/56 25/32/58 94/128/60
f 61/86/46 22/29/45 98/132/67
f 98/132/67 86/120/55 88/122/59
f 95/129/61 27/34/69 26/33/70
f 91/125/54 90/124/62 92/126/65
f 93/127/64 95/129/61 26/33/70
f 93/127/64 97/131/71 88/122/59
f 92/126/65 90/124/62 100/134/77
f 96/130/66 99/133/128 28/35/68
f 98/132/67 36/47/79 61/86/46
f 99/133/128 102/136/81 28/35/68
f 28/35/68 102/136/81 103/137/75
f 97/131/71 26/33/70 30/37/76
f 92/126/65 29/36/78 99/133/128
f 96/130/66 92/126/65 99/133/128
f 90/124/62 105/139/83 100/134/77
f 102/136/81 99/133/128 29/36/78
f 30/37/76 103/137/75 31/38/88
f 90/124/62 62/90/74 111/145/89
f 105/139/83 90/124/62 111/145/89
f 101/135/72 30/37/76 106/140/85
f 100/134/77 105/139/83 34/44/82
f 100/134/77 34/44/82 29/36/78
f 103/137/75 113/148/80 31/38/88
f 31/38/88 37/48/91 106/140/85
f 107/141/92 106/140/85 37/48/91
f 108/142/84 105/139/83 38/49/106
f 105/139/83 44/58/90 38/49/106
f 106/140/85 107/141/92 32/39/86
f 34/44/82 108/142/84 42/55/102
f 113/148/80 34/44/82 42/55/102
f 32/39/86 112/147/93 35/45/94
f 113/148/80 42/55/102 46/61/101
f 37/48/91 113/148/80 40/51/97
f 37/48/91 40/51/97 109/143/98
f 33/43/87 35/45/94 45/60/95
f 33/43/87 45/60/95 41/52/113
f 39/50/96 113/148/80 110/144/99
f 110/144/99 46/61/101 47/62/107
f 110/144/99 47/62/107 114/149/100
f 44/58/90 111/146/89 63/94/104
f 38/49/106 44/58/90 49/65/110
f 112/147/93 109/143/98 43/56/108
f 112/147/93 43/56/108 51/70/109
f 41/53/113 45/60/95 51/71/109
f 115/151/105 47/63/107 116/152/114
f 44/59/90 118/154/115 49/66/110
f 51/72/109 43/57/108 53/74/116
f 51/72/109 53/74/116 119/155/123
f 49/66/110 48/64/121 50/69/103
f 117/153/112 121/157/117 54/75/119
f 41/54/113 69/103/17 125/165/39
f 116/152/114 117/153/112 55/76/120
f 53/74/116 116/152/114 55/76/120
f 41/54/113 58/79/124 69/103/17
f 55/76/120 54/75/119 57/78/1
f 121/157/117 124/161/126 54/75/119
f 63/95/104 122/159/12 126/166/4
f 56/77/122 57/78/1 59/80/127
f 56/77/122 55/76/120 57/78/1
f 119/155/123 56/77/122 59/80/127
f 119/155/123 59/80/127 3/7/3
f 121/157/117 48/64/121 127/167/6
f 123/160/125 121/157/117 127/167/6
f 54/75/119 124/161/126 57/78/1
f 124/161/126 128/168/9 57/78/1
f 120/156/118 119/155/123 3/7/3
f 58/79/124 120/156/118 60/81/16
f 57/78/1 128/168/9 65/97/2
