# Blender 3.4.1
# www.blender.org
mtllib asteroid_low.mtl
o Sphere
v -0.017207 1.003573 0.096964 0.4000 0.3686 0.3882
v 0.715086 -0.612095 0.046694 0.2980 0.2588 0.2980
v 0.772055 -0.409372 -0.250927 0.3176 0.2588 0.3137
v 0.563499 0.420568 0.479038 0.3804 0.3490 0.3686
v 0.520616 -0.123026 0.658575 0.2823 0.2353 0.2863
v 0.442400 -0.814989 0.227199 0.2745 0.2196 0.2784
v 0.780731 0.237283 0.471917 0.3412 0.2902 0.3333
v 0.418722 -0.609146 0.657503 0.2863 0.2353 0.2902
v 0.191704 1.013770 0.429035 0.3568 0.3255 0.3490
v 0.264957 -0.022345 0.931588 0.2667 0.2157 0.2745
v -0.402555 0.261778 0.818523 0.3098 0.2784 0.3137
v -0.182758 0.719664 0.642594 0.2667 0.2118 0.2745
v 0.007476 -0.915841 0.282676 0.4196 0.4000 0.4078
v -0.023008 0.398516 0.901228 0.2784 0.2353 0.2863
v -0.587231 0.241674 0.688117 0.3059 0.2706 0.3098
v -0.562442 0.634869 0.376657 0.2941 0.2353 0.2902
v -0.888027 -0.303694 0.156432 0.3490 0.3216 0.3451
v -1.022385 -0.149722 0.394677 0.3804 0.3608 0.3725
v -1.046541 0.219639 0.322645 0.3568 0.3255 0.3529
v -0.702626 0.530539 -0.106625 0.3372 0.2823 0.3294
v -0.871339 -0.267640 -0.212784 0.3333 0.2941 0.3294
v -0.877110 -0.005994 -0.436135 0.3372 0.2784 0.3294
v -0.135393 -0.888751 -0.214595 0.3568 0.3098 0.3490
v -0.576434 0.589801 -0.321945 0.3529 0.3098 0.3451
v -0.422136 -0.516758 -0.300034 0.4078 0.3804 0.3921
v -0.183049 -0.927811 0.029635 0.3686 0.3294 0.3608
v -0.773909 0.007120 -0.682263 0.3372 0.2823 0.3294
v -0.245963 0.850336 -0.614610 0.3255 0.2667 0.3176
v 0.009026 -0.875388 -0.440577 0.3372 0.2745 0.3294
v -0.432221 0.644265 -0.796687 0.3451 0.3137 0.3412
v 0.086219 -0.454575 -0.816788 0.3412 0.2902 0.3372
v -0.191872 0.889020 -0.333249 0.3686 0.3255 0.3568
v -0.171740 -0.708258 -0.521736 0.3451 0.2941 0.3412
v -0.319617 0.578100 -0.979313 0.3059 0.2667 0.3098
v -0.097646 0.167202 -1.150596 0.3451 0.3098 0.3372
v 0.462852 0.617316 -0.493457 0.3294 0.2706 0.3176
v -0.053755 0.846622 -0.727293 0.3216 0.2588 0.3137
v 0.148148 0.626991 -0.905606 0.3372 0.2784 0.3294
v 0.076615 -0.606180 -0.663645 0.3255 0.2627 0.3176
v 0.286666 -0.283938 -0.661026 0.3412 0.2902 0.3333
v 0.606673 0.136899 -0.785444 0.3216 0.2627 0.3176
v 0.455959 -0.273417 -0.630563 0.3216 0.2588 0.3137
v 0.543820 -0.522251 -0.467396 0.3019 0.2432 0.2980
v 0.830301 -0.160942 -0.257718 0.3255 0.2667 0.3176
v 0.407984 -0.864866 -0.206887 0.4432 0.4314 0.4275
v 0.494053 -0.929368 0.006439 0.3765 0.3490 0.3725
v 0.046706 -1.013070 0.087668 0.3372 0.2863 0.3333
v -0.075391 0.873639 -0.055265 0.4314 0.4039 0.4235
v 0.682498 0.329857 0.049676 0.3372 0.2980 0.3294
v 0.967119 -0.308967 0.211230 0.3568 0.3255 0.3490
v 0.802988 0.155694 0.187978 0.3412 0.2784 0.3333
v 0.640357 0.756827 0.175816 0.3921 0.3765 0.3843
v 0.227627 -0.923673 0.047893 0.3176 0.2627 0.3137
v 0.428771 0.840378 0.379546 0.3843 0.3686 0.3765
v 0.897960 -0.302239 0.436033 0.3608 0.3333 0.3568
v 0.571438 0.662215 0.421951 0.3961 0.3765 0.3843
v 0.552547 -0.453261 0.531264 0.3372 0.3059 0.3333
v 0.347942 -0.850708 0.493590 0.3098 0.2510 0.3059
v 0.466013 0.255077 0.569290 0.3176 0.2706 0.3137
v 0.329960 0.444526 0.820360 0.3019 0.2588 0.3019
v 0.415433 -0.259011 0.660027 0.2784 0.2314 0.2823
v 0.232327 0.751070 0.752662 0.3333 0.3019 0.3294
v -0.019294 -0.357958 1.060651 0.3216 0.2784 0.3176
v 0.003571 -0.810443 0.698400 0.3372 0.2784 0.3294
v -0.215979 0.045284 0.946492 0.3647 0.3412 0.3568
v 0.022977 1.002316 0.328432 0.3608 0.3216 0.3529
v 0.014336 -0.670937 0.842886 0.3255 0.2627 0.3176
v -0.465768 -0.806938 0.292904 0.3647 0.3255 0.3529
v -0.356792 -0.636289 0.833515 0.3529 0.3019 0.3451
v -0.431242 -0.216956 0.971622 0.4078 0.3804 0.3961
v -0.305452 0.823391 0.061339 0.3686 0.3255 0.3568
v -0.198044 0.856414 0.330296 0.3294 0.2902 0.3255
v -0.567288 0.784190 0.223568 0.3294 0.2706 0.3216
v -0.621487 -0.519234 0.538433 0.3804 0.3451 0.3686
v -0.972177 0.189046 0.576687 0.3451 0.3216 0.3412
v -0.738161 -0.320566 0.613005 0.4000 0.3725 0.3882
v -0.693559 0.562931 0.335634 0.3294 0.2667 0.3216
v -0.747640 -0.555450 0.217920 0.3412 0.3137 0.3372
v -0.699256 0.437656 0.082346 0.3333 0.2706 0.3255
v -0.620283 -0.623297 -0.077629 0.4314 0.4196 0.4157
v -0.870746 0.319421 -0.004048 0.3451 0.2902 0.3372
v -0.867620 0.083427 -0.113636 0.3529 0.3059 0.3451
v -0.348942 -0.735825 -0.196456 0.4157 0.3961 0.4039
v -0.470460 0.776617 -0.009425 0.3412 0.2863 0.3333
v -0.727618 -0.393449 -0.332950 0.3725 0.3333 0.3647
v -0.696554 -0.450492 -0.587972 0.3451 0.2941 0.3372
v -0.466475 0.729135 -0.391805 0.3529 0.3059 0.3451
v -0.617250 -0.304057 -0.977891 0.2784 0.2235 0.2823
v -0.475516 0.276032 -1.048077 0.2941 0.2549 0.2980
v -0.392563 -0.539107 -0.667174 0.3490 0.2902 0.3372
v -0.787180 0.370238 -0.482271 0.3686 0.3333 0.3568
v -0.472068 0.006194 -1.009794 0.3019 0.2549 0.3019
v -0.091508 -0.308895 -0.949813 0.3255 0.2863 0.3255
v 0.249824 0.232871 -0.919780 0.3568 0.3255 0.3490
v 0.069311 0.800162 -0.267358 0.3804 0.3412 0.3725
v 0.419810 -0.834087 -0.390523 0.3568 0.3098 0.3451
v 0.614036 0.329077 -0.709958 0.3451 0.2980 0.3372
v 0.181406 0.959433 -0.059452 0.4000 0.3725 0.3843
v 0.908637 0.297476 -0.377345 0.3529 0.3176 0.3451
v 0.910693 0.099632 -0.338954 0.3804 0.3490 0.3686
v 0.443535 0.901944 -0.040595 0.4000 0.3686 0.3882
v 0.577742 0.685608 -0.137541 0.3765 0.3451 0.3686
v 0.894735 -0.088920 -0.083603 0.3255 0.2706 0.3176
vn 0.8505 -0.2941 -0.4360
vn 0.9705 -0.2352 0.0536
vn 0.8184 -0.3653 -0.4435
vn 0.4305 0.8752 -0.2207
vn 0.8649 0.4933 0.0929
vn 0.8131 0.5383 -0.2217
vn 0.8936 0.4223 0.1520
vn 0.9959 0.0292 -0.0858
vn 0.9018 0.4322 0.0070
vn 0.0960 0.9143 -0.3935
vn 0.5631 0.7457 0.3561
vn 0.7730 -0.6319 0.0559
vn 0.5946 -0.7399 0.3147
vn 0.4528 -0.8893 0.0638
vn 0.7360 0.4581 0.4985
vn 0.8106 0.2370 0.5355
vn 0.8282 0.3319 0.4516
vn 0.5541 0.1958 0.8091
vn 0.6423 -0.4155 0.6440
vn 0.4644 -0.8092 0.3600
vn 0.2226 -0.9740 0.0431
vn 0.7026 0.1536 0.6948
vn 0.2003 0.9271 0.3169
vn -0.2711 0.9412 -0.2019
vn 0.5671 -0.1131 0.8159
vn 0.5873 -0.2347 0.7746
vn 0.6752 -0.3695 0.6385
vn 0.1096 -0.2317 0.9666
vn 0.2417 0.5921 0.7688
vn 0.0338 -0.8641 0.5021
vn -0.0061 -0.9577 0.2876
vn 0.0797 -0.9864 0.1434
vn 0.4757 0.0098 0.8796
vn -0.3306 0.9182 0.2184
vn -0.1241 0.2571 0.9584
vn -0.4434 -0.0848 0.8923
vn -0.3947 0.6485 0.6508
vn -0.4149 -0.5931 0.6900
vn 0.1492 -0.6101 0.7782
vn -0.4479 0.3999 0.7996
vn -0.0815 0.3163 0.9451
vn -0.4591 0.8483 0.2640
vn -0.5081 -0.8500 0.1392
vn -0.7243 0.2909 0.6251
vn -0.6947 -0.4903 0.5262
vn -0.3009 0.9497 -0.0870
vn -0.7197 -0.5590 0.4118
vn -0.5775 0.7963 0.1799
vn -0.4671 0.6437 0.6062
vn -0.7161 0.6740 0.1814
vn -0.3964 -0.9162 -0.0589
vn -0.9420 0.3327 -0.0438
vn -0.9112 -0.3835 0.1501
vn -0.9119 -0.4084 -0.0404
vn -0.7945 -0.5953 0.1201
vn -0.5954 -0.7274 -0.3413
vn -0.4961 -0.6568 -0.5679
vn -0.2163 0.9254 -0.3112
vn -0.9847 0.0422 -0.1691
vn -0.9198 -0.3309 -0.2106
vn -0.4766 0.8687 -0.1346
vn -0.7687 0.6385 -0.0371
vn -0.8544 0.4341 -0.2855
vn -0.8513 0.5072 -0.1344
vn -0.7190 0.6789 -0.1488
vn -0.7046 0.6953 -0.1417
vn -0.7145 -0.6558 -0.2437
vn -0.4916 -0.7987 -0.3470
vn -0.4665 -0.8334 -0.2964
vn -0.9673 -0.0683 -0.2443
vn -0.0669 0.9977 -0.0124
vn -0.8471 0.0909 -0.5235
vn -0.7136 -0.6860 -0.1419
vn -0.2727 -0.8890 -0.3679
vn -0.4326 -0.7490 -0.5018
vn -0.4783 -0.0640 -0.8759
vn -0.5214 -0.3653 -0.7712
vn -0.2762 0.6526 -0.7055
vn -0.6004 0.1628 -0.7830
vn -0.5874 0.6434 -0.4910
vn 0.3674 0.5728 -0.7328
vn 0.2389 -0.4270 -0.8721
vn -0.3471 0.8972 -0.2729
vn 0.1686 -0.0496 -0.9844
vn 0.4462 -0.4805 -0.7550
vn 0.1880 -0.6043 -0.7743
vn 0.1085 0.8799 -0.4626
vn 0.4798 -0.0666 -0.8749
vn -0.1259 -0.8502 -0.5112
vn 0.4225 -0.3595 -0.8320
vn 0.6507 0.4112 -0.6383
vn 0.4451 -0.7386 -0.5063
vn 0.5841 -0.1100 -0.8042
vn 0.4182 -0.4296 -0.8004
vn 0.2064 0.9390 -0.2751
vn 0.5599 0.7434 -0.3659
vn 0.6066 -0.3364 -0.7203
vn -0.0805 -0.9798 -0.1829
vn 0.9337 0.3070 -0.1845
vn 0.9730 -0.0780 -0.2173
vn 0.7586 -0.3054 0.5756
vn -0.4189 0.4871 0.7663
vn -0.7902 0.6124 0.0230
vt 0.637449 0.967748
vt 0.530066 0.962513
vt 0.446177 0.956833
vt 0.304349 0.954103
vt 0.828232 0.996094
vt 0.739379 0.273220
vt 0.793624 0.355380
vt 0.637449 0.654010
vt 0.603835 0.467759
vt 0.674748 0.170708
vt 0.662837 0.578013
vt 0.589858 0.289304
vt 0.568274 0.851176
vt 0.537598 0.494046
vt 0.430412 0.591207
vt 0.454642 0.757592
vt 0.533386 0.075537
vt 0.499063 0.094746
vt 0.494284 0.631189
vt 0.390046 0.585289
vt 0.372758 0.745323
vt 0.276770 0.406590
vt 0.310737 0.449195
vt 0.297057 0.554510
vt 0.229668 0.705068
vt 0.214089 0.393337
vt 0.176946 0.496698
vt 0.108945 0.003906
vt 0.992897 0.064138
vt 0.105490 0.091899
vt 0.178016 0.727624
vt 0.148037 0.250524
vt 0.116164 0.038377
vt 0.232206 0.080942
vt 0.139209 0.490995
vt 0.057252 0.792275
vt 0.013661 0.156613
vt 0.004640 0.207370
vt 0.982953 0.141862
vt 0.080693 0.696735
vt 0.003656 0.336803
vt 0.980899 0.356233
vt 0.071613 0.883311
vt 0.998826 0.854449
vt 0.055840 0.221092
vt 0.049327 0.663980
vt 0.014722 0.553514
vt 0.997123 0.559725
vt 0.884953 0.749005
vt 0.014320 0.774132
vt 0.994783 0.768608
vt 0.005085 0.718660
vt 0.000663 0.659287
vt 0.973641 0.678585
vt 0.002534 0.274925
vt 0.000824 0.232367
vt 0.976730 0.266796
vt 0.939318 0.380761
vt 0.893735 0.540317
vt 0.899778 0.396127
vt 0.869042 0.304939
vt 0.798806 0.417803
vt 0.822227 0.151109
vt 0.747542 0.156221
vt 0.564559 0.036602
vt 0.111328 0.007812
vt 0.949460 0.015494
vt 0.338845 0.049361
vt 0.894016 0.044006
vt 0.860186 0.989060
vt 0.829855 0.985194
vt 0.188350 0.947899
vt 0.066241 0.961457
vt 0.736583 0.633355
vt 0.715064 0.403671
vt 0.712726 0.562795
vt 0.706504 0.773128
vt 0.740192 0.054779
vt 0.724349 0.084721
vt 0.830275 0.062133
vt 0.639321 0.820782
vt 0.669139 0.409568
vt 0.652104 0.745017
vt 0.631414 0.329369
vt 0.597265 0.198463
vt 0.603869 0.600571
vt 0.560092 0.642387
vt 0.588406 0.395947
vt 0.545753 0.737244
vt 0.494856 0.395195
vt 0.495420 0.218616
vt 0.466819 0.527051
vt 0.505064 0.894088
vt 0.507354 0.288897
vt 0.345484 0.207454
vt 0.436191 0.297000
vt 0.433034 0.441578
vt 0.291558 0.879311
vt 0.400017 0.864843
vt 0.322719 0.782442
vt 0.364474 0.328728
vt 0.335863 0.549086
vt 0.357155 0.413604
vt 0.324121 0.699185
vt 0.291259 0.305040
vt 0.268132 0.677168
vt 0.223094 0.239716
vt 0.249916 0.609346
vt 0.233906 0.530369
vt 0.174715 0.161032
vt 0.218951 0.819013
vt 0.172014 0.354387
vt 0.134206 0.359966
vt 0.132287 0.781109
vt 0.086832 0.420601
vt 0.067515 0.574704
vt 0.082784 0.300216
vt 0.164362 0.614924
vt 0.066645 0.505938
vt 0.018658 0.408948
vt 0.998382 0.466370
vt 0.957288 0.553072
vt 0.870319 0.956225
vt 0.011672 0.909924
vt 0.961385 0.908903
vt 0.922569 0.914990
vt 0.872591 0.197867
vt 0.881854 0.618674
vt 0.784151 0.933632
vt 0.834262 0.944743
vt 0.817914 0.604490
vt 0.810133 0.555606
vt 0.760416 0.848939
vt 0.787939 0.749027
vt 0.760980 0.467043
s 1
usemtl VertexPaint
f 44/62/1 50/75/2 3/7/3
f 101/133/4 52/77/5 102/134/6
f 102/134/6 52/77/5 49/74/7
f 103/135/8 51/76/9 50/75/2
f 98/129/10 54/81/11 101/133/4
f 3/7/3 50/75/2 2/6/12
f 101/133/4 54/81/11 52/77/5
f 2/6/12 6/10/13 46/64/14
f 50/75/2 51/76/9 7/11/15
f 49/74/7 4/8/16 7/11/15
f 52/77/5 54/81/11 56/83/17
f 52/77/5 4/8/16 49/74/7
f 56/83/17 60/87/18 4/8/16
f 6/10/13 57/84/19 58/85/20
f 58/85/20 53/79/21 6/10/13
f 4/8/16 59/86/22 7/11/15
f 9/13/23 98/129/10 1/1/24
f 5/9/25 61/88/26 57/84/19
f 57/84/19 8/12/27 58/85/20
f 57/84/19 61/88/26 63/90/28
f 9/13/23 62/89/29 56/83/17
f 58/85/20 64/91/30 53/79/21
f 53/79/21 13/17/31 47/65/32
f 59/86/22 60/87/18 5/9/25
f 5/9/25 60/87/18 10/14/33
f 5/9/25 10/14/33 61/88/26
f 9/13/23 1/2/24 66/93/34
f 61/88/26 10/14/33 63/90/28
f 8/12/27 64/91/30 58/85/20
f 64/91/30 13/17/31 53/79/21
f 10/14/33 65/92/35 63/90/28
f 65/92/35 70/97/36 63/90/28
f 9/13/23 66/93/34 12/16/37
f 69/96/38 64/91/30 67/94/39
f 62/89/29 12/16/37 11/15/40
f 62/89/29 11/15/40 14/19/41
f 14/19/41 65/92/35 60/87/18
f 14/19/41 11/15/40 65/92/35
f 65/92/35 11/15/40 70/97/36
f 66/93/34 1/3/24 72/99/42
f 64/91/30 69/96/38 68/95/43
f 70/97/36 75/102/44 76/103/45
f 72/99/42 1/3/24 71/98/46
f 70/97/36 76/103/45 74/101/47
f 69/96/38 70/97/36 74/101/47
f 72/99/42 73/100/48 16/21/49
f 74/101/47 68/95/43 69/96/38
f 16/21/49 77/104/50 75/102/44
f 68/95/43 26/34/51 13/18/31
f 75/102/44 19/24/52 18/23/53
f 75/102/44 18/23/53 76/103/45
f 17/22/54 78/105/55 74/101/47
f 68/95/43 78/105/55 80/107/56
f 77/104/50 19/24/52 75/102/44
f 26/34/51 68/95/43 80/107/56
f 26/34/51 80/107/56 83/110/57
f 1/4/24 48/72/58 71/98/46
f 18/23/53 19/24/52 17/22/54
f 17/22/54 19/24/52 82/109/59
f 78/105/55 21/26/60 80/107/56
f 73/100/48 84/111/61 20/25/62
f 17/22/54 82/109/59 21/26/60
f 91/118/63 82/109/59 81/108/64
f 81/108/64 20/25/62 91/118/63
f 20/25/62 24/31/65 91/118/63
f 84/111/61 87/114/66 24/31/65
f 80/107/56 85/112/67 25/32/68
f 25/32/68 83/110/57 80/107/56
f 26/34/51 83/110/57 23/30/69
f 21/26/60 22/27/70 85/112/67
f 84/111/61 48/72/58 32/43/71
f 22/27/70 91/118/63 27/35/72
f 86/113/73 90/117/74 25/32/68
f 90/117/74 33/45/75 25/32/68
f 25/32/68 23/30/69 83/110/57
f 91/118/63 92/119/76 88/115/77
f 47/66/32 26/33/51 23/28/69
f 27/35/72 88/115/77 86/113/73
f 86/113/73 88/115/77 90/117/74
f 91/118/63 34/46/78 89/116/79
f 30/40/80 38/52/81 34/46/78
f 88/115/77 92/119/76 93/120/82
f 87/114/66 28/36/83 30/40/80
f 92/119/76 35/47/84 93/120/82
f 88/115/77 93/120/82 31/41/85
f 33/45/75 90/117/74 39/55/86
f 30/40/80 37/50/87 38/52/81
f 30/40/80 28/36/83 37/50/87
f 34/46/78 38/53/81 35/47/84
f 35/48/84 38/54/81 94/122/88
f 29/39/89 47/67/32 23/29/69
f 35/48/84 94/122/88 40/58/90
f 93/121/82 40/58/90 31/42/85
f 38/54/81 97/128/91 94/122/88
f 29/39/89 39/57/86 96/127/92
f 94/122/88 41/59/93 42/60/94
f 95/125/95 36/49/96 37/51/87
f 36/49/96 97/128/91 38/54/81
f 40/58/90 42/60/94 43/61/97
f 39/57/86 43/61/97 96/127/92
f 96/127/92 45/63/98 29/39/89
f 99/131/99 100/132/100 97/128/91
f 95/123/95 48/70/58 98/130/10
f 95/125/95 101/133/4 36/49/96
f 45/63/98 46/64/14 53/78/21
f 98/130/10 48/71/58 1/5/24
f 100/132/100 99/131/99 49/74/7
f 101/133/4 102/134/6 36/49/96
f 96/127/92 3/7/3 2/6/12
f 102/134/6 49/74/7 99/131/99
f 96/127/92 2/6/12 46/64/14
f 49/74/7 51/76/9 100/132/100
f 100/132/100 51/76/9 103/135/8
f 53/79/21 46/64/14 6/10/13
f 51/76/9 49/74/7 7/11/15
f 50/75/2 7/11/15 55/82/101
f 2/6/12 50/75/2 55/82/101
f 2/6/12 55/82/101 57/84/19
f 6/10/13 2/6/12 57/84/19
f 52/77/5 56/83/17 4/8/16
f 55/82/101 5/9/25 57/84/19
f 55/82/101 7/11/15 5/9/25
f 54/81/11 98/129/10 9/13/23
f 7/11/15 59/86/22 5/9/25
f 54/81/11 9/13/23 56/83/17
f 56/83/17 62/89/29 60/87/18
f 4/8/16 60/87/18 59/86/22
f 8/12/27 57/84/19 63/90/28
f 64/91/30 8/12/27 67/94/39
f 8/12/27 63/90/28 67/94/39
f 62/89/29 9/13/23 12/16/37
f 14/19/41 60/87/18 62/89/29
f 10/14/33 60/87/18 65/92/35
f 67/94/39 63/90/28 70/97/36
f 69/96/38 67/94/39 70/97/36
f 13/18/31 64/91/30 68/95/43
f 12/16/37 66/93/34 72/99/42
f 16/21/49 12/16/37 72/99/42
f 11/15/40 12/16/37 16/21/49
f 11/15/40 15/20/102 70/97/36
f 11/15/40 16/21/49 15/20/102
f 70/97/36 15/20/102 75/102/44
f 16/21/49 73/100/48 77/104/50
f 15/20/102 16/21/49 75/102/44
f 47/68/32 13/18/31 26/34/51
f 76/103/45 18/23/53 17/22/54
f 72/99/42 71/98/46 73/100/48
f 74/101/47 76/103/45 17/22/54
f 74/101/47 78/105/55 68/95/43
f 73/100/48 71/98/46 84/111/61
f 77/104/50 79/106/103 19/24/52
f 79/106/103 81/108/64 19/24/52
f 19/24/52 81/108/64 82/109/59
f 78/105/55 17/22/54 21/26/60
f 73/100/48 20/25/62 79/106/103
f 77/104/50 73/100/48 79/106/103
f 81/108/64 79/106/103 20/25/62
f 21/26/60 82/109/59 22/27/70
f 84/111/61 71/98/46 48/72/58
f 80/107/56 21/26/60 85/112/67
f 84/111/61 24/31/65 20/25/62
f 82/109/59 91/118/63 22/27/70
f 22/27/70 27/35/72 85/112/67
f 86/113/73 85/112/67 27/35/72
f 87/114/66 84/111/61 28/36/83
f 84/111/61 32/43/71 28/36/83
f 85/112/67 86/113/73 25/32/68
f 24/31/65 87/114/66 30/40/80
f 91/118/63 24/31/65 30/40/80
f 91/118/63 30/40/80 34/46/78
f 27/35/72 91/118/63 88/115/77
f 23/30/69 25/32/68 33/45/75
f 23/30/69 33/45/75 29/37/89
f 92/119/76 91/118/63 89/116/79
f 89/116/79 34/46/78 35/47/84
f 89/116/79 35/47/84 92/119/76
f 32/43/71 48/73/58 95/124/95
f 28/36/83 32/43/71 37/50/87
f 90/117/74 88/115/77 31/41/85
f 90/117/74 31/41/85 39/55/86
f 29/38/89 33/45/75 39/56/86
f 93/121/82 35/48/84 40/58/90
f 32/44/71 95/125/95 37/51/87
f 39/57/86 31/42/85 40/58/90
f 39/57/86 40/58/90 43/61/97
f 37/51/87 36/49/96 38/54/81
f 94/122/88 97/128/91 41/59/93
f 29/39/89 53/80/21 47/69/32
f 40/58/90 94/122/88 42/60/94
f 29/39/89 45/63/98 53/80/21
f 42/60/94 41/59/93 44/62/1
f 97/128/91 100/132/100 41/59/93
f 95/126/95 98/130/10 101/133/4
f 43/61/97 44/62/1 3/7/3
f 43/61/97 42/60/94 44/62/1
f 97/128/91 36/49/96 102/134/6
f 99/131/99 97/128/91 102/134/6
f 41/59/93 100/132/100 44/62/1
f 100/132/100 103/135/8 44/62/1
f 96/127/92 43/61/97 3/7/3
f 45/63/98 96/127/92 46/64/14
f 44/62/1 103/135/8 50/75/2
