# Blender 3.5.0
# www.blender.org
mtllib cell.mtl
o Plane
v -1.000000 0.000000 -1.000000
v -1.000000 0.000000 1.000000
v 1.000000 0.000000 -1.000000
v 1.000000 0.000000 1.000000
v 1.000000 2.000000 -1.000000
v 1.000000 2.000000 1.000000
v -1.000000 2.000000 -1.000000
v -1.000000 2.000000 1.000000
vn -0.0000 1.0000 -0.0000
vn -1.0000 -0.0000 -0.0000
vn 1.0000 -0.0000 -0.0000
vn -0.0000 -1.0000 -0.0000
vn -0.0000 -0.0000 -1.0000
vn -0.0000 -0.0000 1.0000
vt 0.000000 0.000000
vt 1.000000 0.000000
vt 0.000000 1.000000
vt 1.000000 1.000000
vt 0.000000 1.000000
vt 1.000000 1.000000
vt 0.000000 0.000000
vt 1.000000 0.000000
s 0
f 2/2/1 3/3/1 1/1/1
f 4/4/2 5/5/2 3/3/2
f 1/1/3 8/8/3 2/2/3
f 8/8/4 5/5/4 6/6/4
f 8/8/5 4/4/5 2/2/5
f 3/3/6 7/7/6 1/1/6
f 2/2/1 4/4/1 3/3/1
f 4/4/2 6/6/2 5/5/2
f 1/1/3 7/7/3 8/8/3
f 8/8/4 7/7/4 5/5/4
f 8/8/5 6/6/5 4/4/5
f 3/3/6 5/5/6 7/7/6
