# Blender 3.5.1
# www.blender.org
mtllib paperplane_high.mtl
o paperplane_high
v -0.752764 0.000000 -0.851923 1.0000 0.0510 0.1255
v -0.344746 0.010523 0.691952 0.7098 0.9960 0.7137
v -0.111768 0.005262 0.915024 0.0353 1.0000 0.0000
v -0.107282 0.000000 -0.912488 1.0000 1.0000 1.0000
v 0.000000 -0.287979 -0.851923 1.0000 1.0000 1.0000
v 0.000000 0.015988 1.011084 0.0392 1.0000 0.0078
v -0.520850 0.005981 0.040184 0.2588 0.2941 1.0000
v -0.088990 0.002991 0.062343 0.1216 0.1882 1.0000
v 0.000000 -0.109611 0.168076 0.1490 0.2078 1.0000
v -0.344746 0.059058 0.691952 0.7137 0.9960 0.7216
v -0.520850 0.054516 0.040184 0.2706 0.3019 1.0000
v -0.049411 0.014304 0.275790 1.0000 1.0000 1.0000
v 0.000000 -0.062984 0.309851 1.0000 1.0000 1.0000
v -0.752764 0.113410 -0.851923 1.0000 0.0510 0.1255
v -0.107282 0.113410 -0.912488 1.0000 1.0000 1.0000
v -0.752764 0.113410 -1.035560 1.0000 0.0980 0.1490
v -0.107282 0.113410 -0.941728 1.0000 1.0000 1.0000
v 0.752764 0.000000 -0.851923 1.0000 0.0510 0.1255
v 0.344746 0.010523 0.691952 0.7098 0.9960 0.7137
v 0.111768 0.005262 0.915024 0.0353 1.0000 0.0000
v 0.107282 0.000000 -0.912488 1.0000 1.0000 1.0000
v 0.520850 0.005981 0.040184 0.2588 0.2941 1.0000
v 0.088990 0.002991 0.062343 0.1216 0.1882 1.0000
v 0.344746 0.059058 0.691952 0.7137 0.9960 0.7216
v 0.520850 0.054516 0.040184 0.2706 0.3019 1.0000
v 0.049411 0.014304 0.275790 1.0000 1.0000 1.0000
v 0.752764 0.113410 -0.851923 1.0000 0.0510 0.1255
v 0.107282 0.113410 -0.912488 1.0000 1.0000 1.0000
v 0.752764 0.113410 -1.035560 1.0000 0.0980 0.1490
v 0.107282 0.113410 -0.941728 1.0000 1.0000 1.0000
v -0.753479 -0.006696 -0.859316 1.0000 0.0510 0.1255
v -0.351450 0.004295 0.695985 0.7098 0.9960 0.7137
v -0.118577 -0.000067 0.920047 0.0353 1.0000 0.0000
v -0.112063 -0.007134 -0.917611 1.0000 1.0000 1.0000
v 0.000000 -0.297918 -0.850825 1.0000 1.0000 1.0000
v -0.000000 0.021444 1.019465 0.0392 1.0000 0.0078
v -0.525215 -0.002934 0.041394 0.2588 0.2941 1.0000
v -0.093570 -0.005893 0.062667 0.1216 0.1882 1.0000
v 0.000000 -0.119582 0.168837 0.1490 0.2078 1.0000
v -0.350614 0.066213 0.695742 0.7137 0.9960 0.7216
v -0.529229 0.059464 0.042488 0.2706 0.3019 1.0000
v -0.045201 0.023365 0.275392 1.0000 1.0000 1.0000
v 0.000000 -0.053047 0.308732 1.0000 1.0000 1.0000
v -0.753445 0.106559 -0.859176 1.0000 0.0510 0.1255
v -0.107923 0.106137 -0.919322 1.0000 1.0000 1.0000
v -0.752764 0.103410 -1.035560 1.0000 0.0980 0.1490
v -0.107282 0.103410 -0.941728 1.0000 1.0000 1.0000
v 0.753479 -0.006696 -0.859316 1.0000 0.0510 0.1255
v 0.351450 0.004295 0.695985 0.7098 0.9960 0.7137
v 0.118577 -0.000067 0.920047 0.0353 1.0000 0.0000
v 0.112063 -0.007134 -0.917611 1.0000 1.0000 1.0000
v 0.525215 -0.002934 0.041394 0.2588 0.2941 1.0000
v 0.093570 -0.005893 0.062667 0.1216 0.1882 1.0000
v 0.350614 0.066213 0.695742 0.7137 0.9960 0.7216
v 0.529229 0.059464 0.042488 0.2706 0.3019 1.0000
v 0.045201 0.023365 0.275392 1.0000 1.0000 1.0000
v 0.753445 0.106559 -0.859176 1.0000 0.0510 0.1255
v 0.107923 0.106137 -0.919322 1.0000 1.0000 1.0000
v 0.752764 0.103410 -1.035560 1.0000 0.0980 0.1490
v 0.107282 0.103410 -0.941728 1.0000 1.0000 1.0000
vn 0.0074 0.9999 -0.0090
vn 0.7756 0.6309 0.0190
vn 0.9382 0.3456 -0.0187
vn -0.0006 1.0000 -0.0065
vn 0.9654 -0.0000 -0.2608
vn -0.1342 -0.9909 0.0113
vn 0.6916 -0.0000 -0.7223
vn -0.8526 -0.5193 0.0585
vn 0.0934 -0.0000 0.9956
vn -0.0000 1.0000 -0.0000
vn -0.0074 0.9999 -0.0090
vn -0.7756 0.6309 0.0190
vn -0.9382 0.3456 -0.0187
vn 0.0006 1.0000 -0.0065
vn -0.9654 -0.0000 -0.2608
vn 0.1020 -0.9942 0.0345
vn -0.6916 -0.0000 -0.7223
vn 0.8526 -0.5193 0.0585
vn -0.0934 -0.0000 0.9956
vn -0.0075 -0.9999 0.0130
vn -0.7637 -0.6453 -0.0179
vn -0.9343 -0.3559 0.0181
vn -0.0003 -1.0000 0.0043
vn -0.9642 -0.0665 0.2567
vn 0.0912 0.9952 -0.0352
vn -0.6932 0.0122 0.7207
vn 0.8692 0.4917 -0.0515
vn -0.0905 0.0013 -0.9959
vn 0.0106 -0.9926 0.1211
vn 0.0075 -0.9999 0.0130
vn 0.7637 -0.6453 -0.0179
vn 0.9343 -0.3559 0.0181
vn 0.0003 -1.0000 0.0043
vn 0.9645 0.0141 0.2636
vn -0.1316 0.9913 -0.0054
vn 0.6932 0.0122 0.7207
vn -0.8692 0.4917 -0.0515
vn 0.0905 0.0013 -0.9959
vn 0.0026 -0.9998 0.0178
vn 0.6623 0.0903 -0.7438
vn -0.8636 0.4529 0.2215
vn -0.2652 -0.0000 -0.9642
vn 0.4187 -0.2331 -0.8777
vn 0.4543 -0.0997 -0.8853
vn 0.9956 -0.0000 -0.0934
vn -0.9954 0.0002 0.0960
vn 0.1439 -0.0000 -0.9896
vn 0.9996 -0.0000 0.0286
vn -0.9951 0.0989 -0.0000
vn -0.2938 -0.1050 -0.9501
vn 0.9557 -0.1662 0.2429
vn 0.2668 -0.0003 -0.9638
vn -0.3158 0.7838 -0.5347
vn -0.3413 -0.1989 -0.9187
vn -0.7561 -0.0375 -0.6533
vn 0.9956 -0.0000 0.0934
vn -0.1439 -0.0000 -0.9896
vn -0.9961 -0.0878 -0.0000
vn 1.0000 -0.0000 -0.0039
vn 0.0245 0.9997 -0.0020
vn 0.0317 0.9886 -0.1473
vn 0.8234 0.5590 -0.0977
vn 0.0071 1.0000 -0.0032
vn -0.1020 -0.9942 0.0345
vn 0.6480 -0.2188 -0.7295
vn -0.0245 0.9997 -0.0020
vn -0.0317 0.9886 -0.1473
vn -0.8234 0.5590 -0.0977
vn -0.0071 1.0000 -0.0032
vn 0.1342 -0.9909 0.0113
vn -0.6480 -0.2188 -0.7295
vn -0.0246 -0.9997 0.0061
vn 0.0418 -0.9857 0.1634
vn -0.8122 -0.5746 0.1005
vn -0.0069 -1.0000 0.0014
vn -0.9645 0.0141 0.2636
vn 0.1316 0.9913 -0.0054
vn -0.6505 0.2011 0.7324
vn -0.0928 -0.0116 -0.9956
vn -0.0026 -0.9998 0.0178
vn 0.0246 -0.9997 0.0061
vn -0.0418 -0.9857 0.1634
vn 0.8122 -0.5746 0.1005
vn 0.0069 -1.0000 0.0014
vn 0.9642 -0.0665 0.2567
vn -0.0912 0.9952 -0.0352
vn 0.6505 0.2011 0.7324
vn 0.0928 -0.0116 -0.9956
vn -0.0106 -0.9926 0.1211
vn 0.2938 -0.1050 -0.9501
vn -0.9557 -0.1662 0.2429
vn -0.2668 -0.0003 -0.9638
vn 0.3158 0.7838 -0.5347
vn 0.3413 -0.1989 -0.9187
vn 0.7561 -0.0375 -0.6533
vn -0.9956 -0.0000 0.0934
vn 0.9961 -0.0878 -0.0000
vn -1.0000 -0.0000 -0.0039
vn -0.6623 0.0903 -0.7438
vn 0.8636 0.4529 0.2215
vn 0.2652 -0.0000 -0.9642
vn -0.4187 -0.2331 -0.8777
vn -0.4543 -0.0997 -0.8853
vn -0.9956 -0.0000 -0.0934
vn 0.9954 0.0002 0.0960
vn -0.9996 -0.0000 0.0286
vn 0.9951 0.0989 -0.0000
vt 0.000000 0.000000
vt 1.000000 0.000000
vt 1.000000 0.250000
vt 0.000000 0.250000
vt 0.000000 0.500000
vt 1.000000 0.500000
vt 1.000000 0.000000
vt 0.568392 0.000000
vt 0.568392 0.250000
vt 0.568392 0.500000
vt 1.000000 0.000000
vt 0.568392 0.000000
vt 0.568392 0.000000
vt 0.568392 0.000000
vt 0.000000 0.000000
vt 0.000000 0.250000
vt 0.000000 0.000000
vt 0.000000 0.250000
vt 0.000000 0.000000
vt 1.000000 0.000000
vt 1.000000 0.250000
vt 0.000000 0.250000
vt 0.568392 0.000000
vt 0.568392 0.250000
vt 1.000000 0.000000
vt 0.568392 0.000000
vt 0.568392 0.000000
vt 0.000000 0.000000
vt 0.000000 0.250000
vt 0.000000 0.000000
vt 0.000000 0.250000
vt 0.000000 0.000000
vt 1.000000 0.000000
vt 1.000000 0.250000
vt 0.000000 0.250000
vt 0.000000 0.500000
vt 1.000000 0.500000
vt 1.000000 0.000000
vt 0.568392 0.000000
vt 0.568392 0.250000
vt 0.568392 0.500000
vt 1.000000 0.000000
vt 0.568392 0.000000
vt 0.568392 0.000000
vt 0.568392 0.000000
vt 0.000000 0.000000
vt 0.000000 0.250000
vt 0.000000 0.000000
vt 0.000000 0.250000
vt 0.000000 0.000000
vt 1.000000 0.000000
vt 1.000000 0.250000
vt 0.000000 0.250000
vt 0.568392 0.000000
vt 0.568392 0.250000
vt 1.000000 0.000000
vt 0.568392 0.000000
vt 0.568392 0.000000
vt 0.000000 0.000000
vt 0.000000 0.250000
vt 0.000000 0.000000
vt 0.000000 0.250000
s 0
f 2/2/1 8/9/1 7/8/1
f 3/3/2 9/10/2 8/9/2
f 8/9/3 5/5/3 4/4/3
f 7/8/4 4/4/4 1/1/4
f 2/2/5 11/12/5 10/11/5
f 10/11/6 12/13/6 6/7/6
f 10/11/7 3/3/7 2/2/7
f 6/7/8 12/13/8 13/14/8
f 4/4/9 14/15/9 1/1/9
f 14/15/10 17/18/10 16/17/10
f 23/24/11 19/20/11 22/23/11
f 9/10/12 20/21/12 23/24/12
f 5/5/13 23/24/13 21/22/13
f 21/22/14 22/23/14 18/19/14
f 19/20/15 25/26/15 22/23/15
f 24/25/16 26/27/16 25/26/16
f 20/21/17 24/25/17 19/20/17
f 6/7/18 13/14/18 26/27/18
f 27/28/19 21/22/19 18/19/19
f 27/28/10 30/31/10 28/29/10
f 38/40/20 32/33/20 37/39/20
f 39/41/21 33/34/21 38/40/21
f 35/36/22 38/40/22 34/35/22
f 34/35/23 37/39/23 31/32/23
f 32/33/24 41/43/24 37/39/24
f 40/42/25 42/44/25 41/43/25
f 33/34/26 40/42/26 32/33/26
f 36/38/27 43/45/27 42/44/27
f 44/46/28 34/35/28 31/32/28
f 44/46/29 47/49/29 45/47/29
f 49/51/30 53/55/30 52/54/30
f 50/52/31 39/41/31 53/55/31
f 53/55/32 35/36/32 51/53/32
f 52/54/33 51/53/33 48/50/33
f 49/51/34 55/57/34 54/56/34
f 54/56/35 56/58/35 36/38/35
f 54/56/36 50/52/36 49/51/36
f 36/38/37 56/58/37 43/45/37
f 51/53/38 57/59/38 48/50/38
f 57/59/39 60/62/39 59/61/39
f 5/5/40 34/35/40 4/4/40
f 1/1/41 37/39/41 7/8/41
f 7/8/42 41/43/42 11/12/42
f 11/12/43 42/44/43 12/13/43
f 12/13/44 43/45/44 13/14/44
f 4/4/45 45/47/45 15/16/45
f 1/1/46 44/46/46 31/32/46
f 17/18/47 46/48/47 16/17/47
f 17/18/48 45/47/48 47/49/48
f 16/17/49 44/46/49 14/15/49
f 5/5/50 51/53/50 35/36/50
f 18/19/51 52/54/51 48/50/51
f 22/23/52 55/57/52 52/54/52
f 25/26/53 56/58/53 55/57/53
f 26/27/54 43/45/54 56/58/54
f 21/22/55 58/60/55 51/53/55
f 18/19/56 57/59/56 27/28/56
f 29/30/57 60/62/57 30/31/57
f 30/31/58 58/60/58 28/29/58
f 29/30/59 57/59/59 59/61/59
f 2/2/60 3/3/60 8/9/60
f 3/3/61 6/6/61 9/10/61
f 8/9/62 9/10/62 5/5/62
f 7/8/63 8/9/63 4/4/63
f 2/2/5 7/8/5 11/12/5
f 10/11/64 11/12/64 12/13/64
f 10/11/65 6/7/65 3/3/65
f 4/4/9 15/16/9 14/15/9
f 14/15/10 15/16/10 17/18/10
f 23/24/66 20/21/66 19/20/66
f 9/10/67 6/6/67 20/21/67
f 5/5/68 9/10/68 23/24/68
f 21/22/69 23/24/69 22/23/69
f 19/20/15 24/25/15 25/26/15
f 24/25/70 6/7/70 26/27/70
f 20/21/71 6/7/71 24/25/71
f 27/28/19 28/29/19 21/22/19
f 27/28/10 29/30/10 30/31/10
f 38/40/72 33/34/72 32/33/72
f 39/41/73 36/37/73 33/34/73
f 35/36/74 39/41/74 38/40/74
f 34/35/75 38/40/75 37/39/75
f 32/33/76 40/42/76 41/43/76
f 40/42/77 36/38/77 42/44/77
f 33/34/78 36/38/78 40/42/78
f 44/46/79 45/47/79 34/35/79
f 44/46/80 46/48/80 47/49/80
f 49/51/81 50/52/81 53/55/81
f 50/52/82 36/37/82 39/41/82
f 53/55/83 39/41/83 35/36/83
f 52/54/84 53/55/84 51/53/84
f 49/51/85 52/54/85 55/57/85
f 54/56/86 55/57/86 56/58/86
f 54/56/87 36/38/87 50/52/87
f 51/53/88 58/60/88 57/59/88
f 57/59/89 58/60/89 60/62/89
f 5/5/90 35/36/90 34/35/90
f 1/1/91 31/32/91 37/39/91
f 7/8/92 37/39/92 41/43/92
f 11/12/93 41/43/93 42/44/93
f 12/13/94 42/44/94 43/45/94
f 4/4/95 34/35/95 45/47/95
f 1/1/96 14/15/96 44/46/96
f 17/18/47 47/49/47 46/48/47
f 17/18/97 15/16/97 45/47/97
f 16/17/98 46/48/98 44/46/98
f 5/5/99 21/22/99 51/53/99
f 18/19/100 22/23/100 52/54/100
f 22/23/101 25/26/101 55/57/101
f 25/26/102 26/27/102 56/58/102
f 26/27/103 13/14/103 43/45/103
f 21/22/104 28/29/104 58/60/104
f 18/19/105 48/50/105 57/59/105
f 29/30/57 59/61/57 60/62/57
f 30/31/106 60/62/106 58/60/106
f 29/30/107 27/28/107 57/59/107
