# Blender 3.5.1
# www.blender.org
mtllib paperplane_low.mtl
o paperplane_low
v 0.730522 -0.000000 -1.000000
v -0.000000 -0.531497 -1.000000
v -0.730522 0.000000 -1.000000
v 0.000000 -0.000000 1.000000
vn 0.5752 -0.7906 0.2101
vn -0.0000 -0.0000 -1.0000
vn -0.5752 -0.7906 0.2101
vn -0.0000 1.0000 -0.0000
vt 0.750000 0.490000
vt 0.250000 0.490000
vt 0.957846 0.130000
vt 0.457846 0.130000
vt 0.542154 0.130000
vt 0.042154 0.130000
vt 0.250000 0.250000
s 0
f 1/2/1 4/7/1 2/4/1
f 1/1/2 2/3/2 3/5/2
f 2/4/3 4/7/3 3/6/3
f 3/6/4 4/7/4 1/2/4
